<svg xmlns="http://www.w3.org/2000/svg" width="256" height="256" viewBox="0 0 100 100"><rect width="100" height="100" rx="20" fill="#ba009a"></rect><path fill="#fff" d="M16.25 18.23L16.25 74.30L38.21 74.30L38.21 80.96L8.06 80.96L8.06 18.23L16.25 18.23ZM91.94 54.41Q91.94 56.75 91.67 59.36L91.67 59.36L52.25 59.36Q52.70 66.65 57.24 70.74Q61.79 74.84 68.27 74.84L68.27 74.84Q73.58 74.84 77.13 72.36Q80.69 69.89 82.13 65.75L82.13 65.75L90.95 65.75Q88.97 72.86 83.03 77.31Q77.09 81.77 68.27 81.77L68.27 81.77Q61.25 81.77 55.71 78.62Q50.18 75.47 47.03 69.66Q43.88 63.86 43.88 56.21L43.88 56.21Q43.88 48.56 46.94 42.80Q50 37.04 55.53 33.93Q61.07 30.83 68.27 30.83L68.27 30.83Q75.29 30.83 80.69 33.89Q86.09 36.95 89.01 42.30Q91.94 47.66 91.94 54.41L91.94 54.41ZM83.48 52.70Q83.48 48.02 81.41 44.64Q79.34 41.27 75.78 39.51Q72.23 37.76 67.91 37.76L67.91 37.76Q61.70 37.76 57.33 41.72Q52.97 45.68 52.34 52.70L52.34 52.70L83.48 52.70Z"></path></svg>